<svg width="112" height="48" viewBox="0 0 112 48" fill="none" xmlns="http://www.w3.org/2000/svg">
  <g clip-path="url(#a)">
    <path d="M48.126.995c-.62.414-1.07.936-1.478 1.552-1.5.026-2.911.455-3.976 1.562-1.016 1.054-1.362 2.334-1.315 3.767l.005.109c.189 1.286.707 2.34 1.756 3.134.248.188.8.461 1.363.74.725.358 1.467.725 1.595.928.443.632 1.625 1.002 2.358 1.136 1.147.21 2.17.116 3.274-.21 1.574 2.44 2.238 5.002 2.603 7.863l-.13.242c-.329-.289-.6-.733-.868-1.174-.19-.313-.38-.624-.588-.877-2.093-2.54-5.274-4.336-8.642-4.147-.666.038-2.2.193-2.72.638-.079.617.596 1.589.98 2.08 2.245 2.874 5.896 3.58 9.293 4.239q.468.09.928.181l.072.014c.26.05.631.12.695.372l-.035.092c-3.468-.584-7.09-.163-10.014 1.933-2.499 1.792-3.934 4.62-4.418 7.612-.575 3.551.025 7.525 2.163 10.482 1.728 2.39 4.28 3.907 7.187 4.367 3.211.507 6.701-.09 9.355-2.033 2.52-1.844 3.945-4.663 4.407-7.706.556-3.661.045-7.554-2.197-10.585-.968-1.309-2.11-2.199-3.502-3.02l-.09-.05c-.172-.096-.332-.185-.379-.399 3.121-1.068 6.208-2.354 8.693-4.59 1.205-1.084 3.306-3.61 3.392-5.21-.142-.226-.186-.267-.446-.344-.54-.159-1.218-.18-1.785-.192-3.014-.065-5.558 1.312-7.43 3.619a9 9 0 0 0-.462.681c-.36.559-.79 1.23-1.032 1.338l-.065.027-.035.013c.201-.83.468-1.654.734-2.477.195-.6.39-1.2.558-1.803l.088-.07c2.127-1.689 3.65-4.232 3.946-6.952.22-2.024-.258-3.795-1.533-5.389-.21.11-.419.223-.62.349C58.006 3.97 57.033 6.164 56.6 8.18c-.437 2.025-.537 4.95.626 6.75a390 390 0 0 0-2.131 6.924c-.283-2.98-1.166-5.97-2.726-8.528q.38-.346.702-.746c.893-1.1 1.959-3.214 1.81-4.654-.162-.21-.343-1.187-.497-2.019-.087-.47-.165-.892-.227-1.105-.302-1.046-.71-2.025-1.175-3.007C52.528 1.1 51.857.544 51.03.36c-1.024-.227-2.047.061-2.905.634m1.076 22.995c1.447-.143 2.783.001 4.041.793 2.032 1.279 3.015 3.672 3.526 5.92.876 3.861.871 10.136-1.348 13.583-.903 1.403-2.068 2.087-3.664 2.433-1.489.16-2.908.012-4.184-.83-2.097-1.384-3.018-4.013-3.503-6.369-.813-3.945-.924-9.618 1.415-13.113.935-1.399 2.1-2.084 3.717-2.417" fill="#353c3a"/>
    <path d="M46.648 2.547c.407-.616.858-1.138 1.477-1.552.858-.573 1.881-.861 2.905-.634.826.183 1.498.74 1.95 1.435-1.415.41-1.897.953-2.717 2.17-.216.592-.401 1.212-.453 1.844.995.877 1.635 1.865 1.723 3.223.01.163.023.193-.066.325l-.362-.107c-.322.235-.403.636-.463 1.012-.107.672-.123 1.396-.11 2.076a7 7 0 0 0-2.426-.287c-.71.176-1.382.38-2.03.735-.228-.36-2.39-1.238-2.958-1.668-1.05-.794-1.568-1.848-1.757-3.134l-.004-.109c-.048-1.433.299-2.713 1.314-3.767 1.066-1.107 2.477-1.536 3.977-1.562" fill="#eae9e8"/>
    <path d="M46.648 2.547c.407-.616.858-1.138 1.477-1.552.858-.573 1.881-.861 2.905-.634.826.183 1.498.74 1.95 1.435-1.415.41-1.897.953-2.717 2.17-.216.592-.401 1.212-.453 1.844l-.994-.4c-.396.01-1.177-.07-1.517.102l-.438.213c-.169.153-.366.385-.56.496l-.367.634-.254.015c-1.181-.02-2.296.108-3.377.618-.306.144-.626.401-.942.497l-.004-.109c-.048-1.433.299-2.713 1.314-3.767 1.066-1.107 2.477-1.536 3.977-1.562" fill="#db8778"/>
    <path d="M48.817 5.41c.18-.485.333-1.081.707-1.45.337-.137.405-.092.74.006-.216.592-.401 1.212-.454 1.844zm-1.956.315c-.357-.246-.767-.496-1.056-.823-.188-.213-.286-.443-.273-.726l.188-.093c.79.174 1.129.82 1.58 1.429zM45.68 6.87c-.149-.018-.316-.031-.46-.074-.242-.071-.28-.17-.372-.378.102-.144.127-.184.29-.256.395-.173.776-.086 1.163.06l-.367.633zm1.97-3.68c.134.058.265.127.349.25.338.497.282 1.489.22 2.065l-.47-.14a.8.8 0 0 1-.154-.215c-.277-.614-.163-1.348.055-1.96" fill="#353c3a"/>
    <path d="m45.68 6.87.255-.015c-.31 1.171-.477 2.356.171 3.456.463.786 1.214 1.314 2 1.74-.71.176-1.382.382-2.03.736-.228-.36-2.39-1.238-2.958-1.668-1.049-.794-1.567-1.848-1.756-3.134.315-.096.636-.353.941-.497 1.081-.51 2.197-.639 3.378-.618" fill="#ebb19f"/>
    <path d="m56.638 19.18.1-.04c.365-.164 1.166-1.617 1.493-2.02 1.872-2.307 4.417-3.684 7.43-3.62.567.013 1.247.034 1.786.193.26.077.304.118.445.344-.085 1.6-2.186 4.126-3.392 5.21-2.484 2.236-5.57 3.522-8.692 4.59 1.621-2.053 3.518-4.067 5.547-5.718.706-.574 3.687-2.398 3.903-2.773-.096-.063-.11-.103-.228-.085-2.696.392-7.888 5.929-9.5 8.023a16.8 16.8 0 0 1 1.108-4.105m-3.342 4.057.035-.092c-.07-.276-.509-.334-.767-.386-3.643-.727-7.77-1.282-10.221-4.42-.384-.491-1.059-1.463-.98-2.08.52-.445 2.054-.6 2.72-.638 3.368-.19 6.549 1.607 8.642 4.147.502.608.894 1.557 1.456 2.05l.13-.241c.057.34.08.608.03.954-.404-.13-1.044-.96-1.424-1.262-2.147-1.702-5.913-4.016-8.754-3.935l-.074.1c.708.552 1.904.77 2.748 1.064 2.547.883 5.386 2.558 7.01 4.761l-.088.098c-.14-.032-.34-.05-.463-.12M60.43 2.488c1.276 1.594 1.754 3.365 1.534 5.39-.296 2.72-1.819 5.262-3.946 6.952l-.088.07c.492-2.427.856-4.986 1.578-7.349.157-.514.508-1.442.248-1.932l-.182.073c-1.11 1.758-1.673 6.934-2.35 9.238-1.162-1.799-1.062-4.724-.625-6.75.434-2.016 1.407-4.209 3.212-5.343.2-.126.41-.24.62-.349" fill="#97a898"/>
    <path d="M50.263 3.966c.82-1.217 1.303-1.761 2.718-2.17.465.982.873 1.96 1.175 3.007.171.59.47 2.797.725 3.124-.905.183-1.532.669-2.035 1.435-.28.426-.5.912-.702 1.38-.224-.414-.586-.926-.677-1.385.089-.131.077-.161.066-.324-.088-1.358-.728-2.346-1.723-3.223.052-.632.237-1.252.453-1.844" fill="#ebb19f"/>
    <path d="M93.403 23.044a23 23 0 0 0-2.584.094c-2.09.421-4.6 1.134-5.85 3.014-.624.938-.902 2.097-.68 3.21.163.818.6 1.566 1.308 2.026.656.425 1.596.619 2.363.447a2.44 2.44 0 0 0 1.52-1.105c.39-.625.503-1.417.336-2.13-.104-.44-.405-.787-.697-1.124-.486-.56-.949-1.092-.445-1.983.41-.724 1.383-1.156 2.155-1.334 1.193-.275 2.62-.191 3.674.478 1.03.654 1.606 1.73 1.861 2.9.314 1.451.388 3.568-.458 4.836-.767 1.15-2.72 1.601-4.912 2.108-3.143.728-6.782 1.57-8.136 4.745-.52 1.221-.365 2.474-.248 3.418.066.524.12.953.037 1.227q.023.028.043.057c.17.228.307.474.445.721.1.18.2.36.313.533.942 1.448 2.212 2.077 3.892 2.336 2.534.39 5.344-.166 7.423-1.706.496-.367 1.413-1.194 1.512-1.831l.025.033.01.015c.304.455.412.911.514 1.34.214.9.4 1.682 2.316 2.09 1.437.305 3.662.15 4.937-.698.261-.173.53-.443.581-.763a1 1 0 0 0 .008-.107l-.001-.09-.056-.054c-.095-.093-.112-.11-.285-.106-.253.007-.512.053-.771.099-.658.118-1.315.235-1.865-.302-.816-.797-.8-2.642-.79-3.825l.002-.261q.03-3.839.017-7.676c-.01-5.785-.195-10.414-7.514-10.632m2.617 10.68.315-.01.095.133c.09.736.065 1.476.039 2.215a31 31 0 0 0-.025 1.016c0 .447.014.9.03 1.358.036 1.094.073 2.205-.108 3.26a4.6 4.6 0 0 1-.64 1.679c-.706 1.125-1.872 1.824-3.154 2.098-1.52.324-2.711-.011-3.988-.83l-.225-.397c-.747-1.31-1.193-2.092-1.042-3.841.284-3.303 3.566-4.53 6.26-5.537l.207-.078.145-.054q.153-.057.331-.12l.002-.001c.566-.202 1.278-.457 1.665-.804q.02-.016.038-.034z" fill="#353c3a"/>
    <path d="m93.825 34.775-.1.037.06-.022z" fill="#eae9e8"/>
    <path d="M17.914 10.002a8 8 0 0 1 1.65.013 7.76 7.76 0 0 1 5.29 2.794c.88 1.087 1.393 2.406 1.233 3.815-.094.825-.402 1.623-1.072 2.148-.715.562-1.74.84-2.642.729a2.8 2.8 0 0 1-1.885-1.102c-.412-.54-.592-1.343-.491-2.012.221-1.469 1.76-1.604 2.736-2.344.262-.199.372-.4.42-.722-.06-.377-.213-.622-.466-.895-.94-1.012-2.37-1.479-3.724-1.512-1.166-.03-2.32.281-3.167 1.118-2.022 1.997-1.467 8.3-1.461 11.035 1.353.012 9.103-.227 9.801.287.069.228.039.36-.02.587-.53.363-8.432.17-9.79.19l.012 7.821c.698.001 1.398.01 2.095-.019 4.906-.205 3.437-3.746 4.616-4.92.124-.122.188-.089.359-.089.341.453.187 8.92.187 10.192.004.298-.018.59-.042.887l-.211.172c-.273.003-.34.045-.553-.137-.167-1.374-.56-3.116-1.586-4.102-1.272-1.222-3.244-.965-4.865-.945-.01 2.334-.525 10.838.97 12.46.819.887 2.319.77 2.895 1.492l-.025.158c-.32.177-.714.187-1.073.202-1.031.043-10.293.02-10.802-.134-.102-.031-.062-.037-.168-.024l-.059.013-.051-.122c.14-.522 2.26-.934 2.866-1.567 1.33-1.388.848-10.068.835-12.46-.934-.015-2.803.311-3.504-.265-.13-.254-.166-.302-.137-.582.518-.463 2.895-.242 3.632-.244q.018-3.912-.006-7.824c-1.134.02-2.655.22-3.684-.322L6 23.447c.707-.59 2.798-.374 3.718-.367-.04-3.387.008-7.42 2.255-10.195 1.487-1.836 3.663-2.646 5.941-2.883m16.424-1.716.127.025c.174.202.174.311.187.57.145 2.806-.01 5.703-.012 8.52l-.004 17.818c0 2.14-.308 7.894.372 9.573.755 1.864 2.519 1.275 3.087 2.15l-.089.234c-.515.2-9.364.092-10.792.136-.113 0-.09.012-.175-.021-.217-.086-.211-.172-.302-.371.215-.736 1.788-.44 2.43-1.153.555-.619.772-1.441.874-2.246.21-1.667.146-3.38.145-5.06l-.006-7.066-.005-10.12c.003-2.246.06-4.505-.049-6.75-.119-2.467-.035-2.928-2.474-3.683-.247-.076-.597-.158-.78-.35-.115-.122-.08-.163-.083-.32l.102.013c.193-.224 1.08-.272 1.389-.311 2.119-.27 4.138-.612 6.058-1.588M70.32 22.91l.332.042c.026.041.07.1.088.15.247.644.111 4.959-.138 5.546.356-.31.51-.747.721-1.159.75-1.454 1.674-2.73 3.169-3.494 1.552-.794 3.567-1.207 5.251-.64.935.314 1.69.96 2.12 1.852.446.93.534 2.025.175 2.999-.293.792-.882 1.5-1.659 1.854-.735.336-1.551.307-2.296.01-.752-.301-1.39-.838-1.696-1.6-.59-1.467.204-1.997.662-3.202.09-.234.073-.306-.03-.524-.314-.152-.644-.087-.97-.009-4.141.993-5.113 5.889-5.197 9.542-.02.9.013 4.054.013 4.054s-.035 3.031 0 3.902c.082 2.116.228 3.551 2.49 4.23.332.1.753.161 1.005.41.068.065.035.185.034.275q-.038.03-.077.058c-.14.096-10.679.133-11.263-.014l-.071-.242c.244-.92 2.015-.46 2.697-1.329.34-.432.471-.996.548-1.529.416-2.86.216-5.952.209-8.849-.006-2.4.148-4.955-.179-7.326-.453-3.299-1.654-1.75-3.018-2.789-.12-.26-.1-.288-.035-.571 2.323-.44 4.903-.46 7.039-1.605z" fill="#353c3a"/>
  </g>
  <defs>
    <clipPath id="a">
      <path fill="#fff" d="M6 .283h98.667v47.519H6z"/>
    </clipPath>
  </defs>
</svg>
